<?xml version="1.0" encoding="UTF-8" standalone="no"?>
<!-- Created with Inkscape (http://www.inkscape.org/) -->

<svg
   xmlns:dc="http://purl.org/dc/elements/1.1/"
   xmlns:cc="http://creativecommons.org/ns#"
   xmlns:rdf="http://www.w3.org/1999/02/22-rdf-syntax-ns#"
   xmlns:svg="http://www.w3.org/2000/svg"
   xmlns="http://www.w3.org/2000/svg"
   xmlns:sodipodi="http://sodipodi.sourceforge.net/DTD/sodipodi-0.dtd"
   xmlns:inkscape="http://www.inkscape.org/namespaces/inkscape"
   width="145mm"
   height="89mm"
   viewBox="0 0 513.77934 315.35415"
   id="svg4327"
   version="1.1"
   inkscape:version="0.91 r13725"
   sodipodi:docname="logo-ccc-black-bg.svg">
  <defs
     id="defs4329" />
  <sodipodi:namedview
     id="base"
     pagecolor="#1a253c"
     bordercolor="#666666"
     borderopacity="1.0"
     inkscape:pageopacity="1"
     inkscape:pageshadow="2"
     inkscape:zoom="0.7"
     inkscape:cx="424.76119"
     inkscape:cy="250.45341"
     inkscape:document-units="px"
     inkscape:current-layer="text4885"
     showgrid="false"
     inkscape:window-width="1280"
     inkscape:window-height="776"
     inkscape:window-x="0"
     inkscape:window-y="24"
     inkscape:window-maximized="1" />
  <metadata
     id="metadata4332">
    <rdf:RDF>
      <cc:Work
         rdf:about="">
        <dc:format>image/svg+xml</dc:format>
        <dc:type
           rdf:resource="http://purl.org/dc/dcmitype/StillImage" />
        <dc:title></dc:title>
      </cc:Work>
    </rdf:RDF>
  </metadata>
  <g
     inkscape:label="Layer 1"
     inkscape:groupmode="layer"
     id="layer1"
     transform="translate(0,-737.0084)">
    <g
       style="font-style:normal;font-weight:normal;font-size:40px;line-height:125%;font-family:sans-serif;letter-spacing:41.13999939px;word-spacing:0px;fill:#effffe;fill-opacity:1;stroke:none;stroke-width:1px;stroke-linecap:butt;stroke-linejoin:miter;stroke-opacity:1"
       id="text4885">
      <path
         d="m 3.3332,984.98507 c 0,16.66253 4.5725,28.98503 18.91,28.98503 4.03,0 13.485,-0.6975 18.91,-1.705 l 0,-4.5725 c 0,0 -10.7725,0.5425 -18.91,0.5425 -10.3075,0 -13.175,-10.38503 -13.175,-23.09503 0,-18.8325 3.4875,-23.25 13.175,-23.25 7.13,0 18.8325,0.775 18.91,0.775 l 0,-4.5725 c -5.425,-1.0075 -14.88,-1.9375 -18.91,-1.9375 -15.4225,0 -18.91,10.695 -18.91,28.83 z"
         style="font-style:normal;font-variant:normal;font-weight:normal;font-stretch:normal;font-size:77.5px;font-family:Exo;-inkscape-font-specification:Exo;letter-spacing:0px;fill:#effffe;fill-opacity:1"
         id="path4919"
         inkscape:connector-curvature="0"
         inkscape:export-filename="logo-ccc-black-bg.png"
         inkscape:export-xdpi="90"
         inkscape:export-ydpi="90" />
      <path
         d="m 48.52539,1013.5051 5.735,0 0,-24.25753 15.5,1.085 11.935,23.17253 6.2,0 -11.935,-23.40503 c 2.17,-0.31 9.8425,-1.55 9.8425,-16.275 0,-12.865 -5.735,-17.05 -13.0975,-17.05 l -24.18,0 0,56.73003 z m 5.735,-29.37253 0,-21.545 18.445,0 c 3.41,0 7.285,1.085 7.285,11.2375 0,10.3075 -3.72,10.3075 -7.285,10.3075 l -18.445,0 z"
         style="font-style:normal;font-variant:normal;font-weight:normal;font-stretch:normal;font-size:77.5px;font-family:Exo;-inkscape-font-specification:Exo;letter-spacing:0px;fill:#effffe;fill-opacity:1"
         id="path4921"
         inkscape:connector-curvature="0"
         inkscape:export-filename="logo-ccc-black-bg.png"
         inkscape:export-xdpi="90"
         inkscape:export-ydpi="90" />
      <path
         d="m 96.09101,1013.5051 5.735,0 0,-56.73003 -5.735,0 0,56.73003 z"
         style="font-style:normal;font-variant:normal;font-weight:normal;font-stretch:normal;font-size:77.5px;font-family:Exo;-inkscape-font-specification:Exo;letter-spacing:0px;fill:#effffe;fill-opacity:1"
         id="path4923"
         inkscape:connector-curvature="0"
         inkscape:export-filename="logo-ccc-black-bg.png"
         inkscape:export-xdpi="90"
         inkscape:export-ydpi="90" />
      <path
         d="m 130.1789,984.98507 c 0,16.66253 4.5725,28.98503 18.91,28.98503 4.03,0 13.485,-0.6975 18.91,-1.705 l 0,-4.5725 c 0,0 -10.7725,0.5425 -18.91,0.5425 -10.3075,0 -13.175,-10.38503 -13.175,-23.09503 0,-18.8325 3.4875,-23.25 13.175,-23.25 7.13,0 18.8325,0.775 18.91,0.775 l 0,-4.5725 c -5.425,-1.0075 -14.88,-1.9375 -18.91,-1.9375 -15.4225,0 -18.91,10.695 -18.91,28.83 z"
         style="fill:#93f2f0;fill-opacity:1"
         id="path4925"
         inkscape:connector-curvature="0"
         inkscape:export-filename="logo-ccc-black-bg.png"
         inkscape:export-xdpi="90"
         inkscape:export-ydpi="90" />
      <path
         d="m 173.48808,985.52757 c 0,25.80753 8.06,28.28753 22.01,28.28753 13.95,0 21.855,-3.255 21.855,-28.28753 0,-26.5825 -8.4475,-29.14 -21.855,-29.14 -13.02,0 -22.01,2.5575 -22.01,29.14 z m 5.735,0 c 0,-23.1725 5.9675,-23.405 16.275,-23.405 10.54,0 16.12,0.2325 16.12,23.405 0,19.29753 -4.03,22.55253 -16.12,22.55253 -12.245,0 -16.275,-2.635 -16.275,-22.55253 z"
         style="fill:#93f2f0;fill-opacity:1"
         id="path4927"
         inkscape:connector-curvature="0"
         inkscape:export-filename="logo-ccc-black-bg.png"
         inkscape:export-xdpi="90"
         inkscape:export-ydpi="90" />
      <path
         d="m 227.02363,1013.5051 21.08,0 c 14.9575,0 20.15,-15.26753 20.15,-28.13253 0,-11.625 -2.7125,-28.5975 -20.15,-28.5975 l -21.08,0 0,56.73003 z m 5.735,-5.9675 0,-45.02753 15.345,0 c 8.99,0 14.415,6.2 14.415,22.785 0,11.935 -4.185,22.24253 -14.415,22.24253 l -15.345,0 z"
         style="fill:#93f2f0;fill-opacity:1"
         id="path4929"
         inkscape:connector-curvature="0"
         inkscape:export-filename="logo-ccc-black-bg.png"
         inkscape:export-xdpi="90"
         inkscape:export-ydpi="90" />
      <path
         d="m 276.36933,1003.9726 c 0,8.7575 5.425,10.075 10.54,9.765 l 23.715,-1.3175 0,-4.4175 -23.715,0 c -2.2475,0 -4.7275,0.077 -4.805,-4.03 l 0,-15.50003 25.42,-0.775 0,-4.5725 -25.42,-0.775 0,-15.5 c 0,-2.0925 0,-4.34 4.03,-4.34 l 24.49,0 0,-4.495 -24.49,-1.24 c -5.1925,-0.2325 -9.765,2.48 -9.765,10.075 l 0,37.12253 z"
         style="fill:#93f2f0;fill-opacity:1"
         id="path4931"
         inkscape:connector-curvature="0"
         inkscape:export-filename="logo-ccc-black-bg.png"
         inkscape:export-xdpi="90"
         inkscape:export-ydpi="90" />
      <path
         d="m 337.70332,984.98507 c 0,16.66253 4.5725,28.98503 18.91,28.98503 4.03,0 13.485,-0.6975 18.91,-1.705 l 0,-4.5725 c 0,0 -10.7725,0.5425 -18.91,0.5425 -10.3075,0 -13.175,-10.38503 -13.175,-23.09503 0,-18.8325 3.4875,-23.25 13.175,-23.25 7.13,0 18.8325,0.775 18.91,0.775 l 0,-4.5725 c -5.425,-1.0075 -14.88,-1.9375 -18.91,-1.9375 -15.4225,0 -18.91,10.695 -18.91,28.83 z"
         style="font-style:normal;font-variant:normal;font-weight:normal;font-stretch:normal;font-size:77.5px;font-family:Exo;-inkscape-font-specification:Exo;letter-spacing:0px;fill:#effffe;fill-opacity:1"
         id="path4933"
         inkscape:connector-curvature="0"
         inkscape:export-filename="logo-ccc-black-bg.png"
         inkscape:export-xdpi="90"
         inkscape:export-ydpi="90" />
      <path
         d="m 384.44551,1003.7401 c 0,8.7575 5.425,9.765 10.54,9.765 l 23.715,0 0,-5.735 -23.715,0 c -2.2475,0 -4.805,0.078 -4.805,-4.03 l 0,-46.96503 -5.735,0 0,46.96503 z"
         style="font-style:normal;font-variant:normal;font-weight:normal;font-stretch:normal;font-size:77.5px;font-family:Exo;-inkscape-font-specification:Exo;letter-spacing:0px;fill:#effffe;fill-opacity:1"
         id="path4935"
         inkscape:connector-curvature="0"
         inkscape:export-filename="logo-ccc-black-bg.png"
         inkscape:export-xdpi="90"
         inkscape:export-ydpi="90" />
      <path
         d="m 423.34687,988.70507 c 0,25.80753 10.4625,25.18753 21.0025,25.18753 9.3775,0 20.615,-0.155 20.615,-25.18753 l 0,-31.93 -5.8125,0 0,31.93 c 0,19.29753 -7.13,19.45253 -14.8025,19.45253 -9.0675,0 -15.2675,0.465 -15.2675,-19.45253 l 0,-31.93 -5.735,0 0,31.93 z"
         style="font-style:normal;font-variant:normal;font-weight:normal;font-stretch:normal;font-size:77.5px;font-family:Exo;-inkscape-font-specification:Exo;letter-spacing:0px;fill:#effffe;fill-opacity:1"
         id="path4937"
         inkscape:connector-curvature="0"
         inkscape:export-filename="logo-ccc-black-bg.png"
         inkscape:export-xdpi="90"
         inkscape:export-ydpi="90" />
      <path
         d="m 475.87129,1013.5051 21.855,0 c 11.935,0 15.035,-7.905 15.035,-15.81003 0,-8.835 -4.03,-12.865 -7.44,-13.64 5.5025,-1.705 7.13,-6.82 7.13,-12.555 0,-6.355 -3.41,-14.725 -14.725,-14.725 l -21.855,0 0,56.73003 z m 5.8125,-5.735 0,-21.08003 16.0425,0 c 6.51,0 9.3,5.115 9.3,10.85 0,9.22253 -5.58,10.23003 -9.3,10.23003 l -16.0425,0 z m 0,-26.81503 0,-18.445 16.0425,0 c 4.03,0 8.99,1.4725 8.99,8.99 0,6.355 -3.1775,9.455 -8.99,9.455 l -16.0425,0 z"
         style="font-style:normal;font-variant:normal;font-weight:normal;font-stretch:normal;font-size:77.5px;font-family:Exo;-inkscape-font-specification:Exo;letter-spacing:0px;fill:#effffe;fill-opacity:1"
         id="path4939"
         inkscape:connector-curvature="0"
         inkscape:export-filename="logo-ccc-black-bg.png"
         inkscape:export-xdpi="90"
         inkscape:export-ydpi="90" />
      <text
         xml:space="preserve"
         style="font-style:normal;font-weight:normal;font-size:40px;line-height:125%;font-family:sans-serif;letter-spacing:41.13999939px;word-spacing:0px;fill:#ffe060;fill-opacity:1;stroke:none;stroke-width:1px;stroke-linecap:butt;stroke-linejoin:miter;stroke-opacity:1"
         x="67.870209"
         y="1050.416"
         id="text4941"
         sodipodi:linespacing="125%"
         inkscape:export-filename="logo-ccc-black-bg.png"
         inkscape:export-xdpi="90"
         inkscape:export-ydpi="90"><tspan
           sodipodi:role="line"
           id="tspan4943"
           x="67.870209"
           y="1050.416"
           style="font-style:normal;font-variant:normal;font-weight:normal;font-stretch:normal;font-size:22.5px;font-family:Exo;-inkscape-font-specification:Exo;letter-spacing:0px;fill:#ffe060;fill-opacity:1">LEARN SHARE EXPERIMENT... &amp; CODE!</tspan></text>
      <path
         d="m 333.60087,891.39809 c -1.81314,2.11588 -4.53865,3.9315 -8.17735,5.74629 -3.32934,0.90823 -7.87711,1.82723 -12.71601,1.82723 -5.15656,0 -11.51082,-0.919 -17.86426,-2.43188 0.8991,-3.32684 2.1192,-6.95809 3.02908,-10.60012 2.11504,-7.86714 3.62876,-16.65081 4.53781,-25.73722 6.36173,-5.44769 12.11383,-10.90368 17.26459,-16.65246 0.60299,1.21179 1.51288,2.11836 2.11919,3.02659 5.14247,6.35342 8.7845,12.41408 11.20312,18.47721 2.42028,5.74712 3.63373,11.20394 3.63373,15.43902 0,4.23755 -0.90989,7.87792 -3.0299,10.90534 z m -45.72649,3.32685 c -3.63124,-1.21097 -7.27078,-2.42028 -10.90037,-3.63042 -3.64369,-1.51288 -7.57685,-3.33016 -11.20477,-5.15491 6.35094,-3.63041 12.71599,-7.26166 19.07938,-11.81026 3.02576,-2.42028 6.35592,-4.84055 9.3908,-7.25917 -1.522,9.99215 -3.64119,19.67491 -6.36504,27.85476 z m -3.3368,8.48092 c -3.93398,8.17983 -8.16989,14.83767 -12.4174,19.0827 -2.72302,2.11919 -4.8389,3.63042 -7.26083,4.84138 -2.11753,1.20931 -4.5461,1.81479 -6.96804,1.81479 -2.12003,0 -4.53948,-0.60548 -6.96805,-1.81479 -3.93564,-1.51288 -8.17071,-5.44604 -11.81274,-10.59928 -3.02576,-4.23756 -6.05152,-9.39164 -8.47097,-15.44068 3.32518,-1.21179 7.26083,-2.43023 10.90286,-3.64286 5.14247,-2.11753 10.5968,-4.53864 16.3489,-7.26083 5.45516,2.72219 10.90037,5.1433 16.36051,7.26083 3.92984,1.82807 7.25834,2.7338 10.89125,3.94477 0,0.60549 -0.29445,1.51288 -0.60549,1.81397 z m -59.65676,-19.38461 c -1.51537,-5.1433 -2.42194,-11.20395 -3.63208,-16.95107 3.32933,2.11588 6.36422,4.53698 9.69355,6.95643 6.35178,4.24586 12.71932,8.48259 19.08104,12.113 -3.94559,1.5245 -7.57435,3.03655 -11.20394,4.85134 -3.6412,1.21097 -7.27079,2.42194 -10.9153,3.63124 -1.21014,-3.32767 -2.11671,-6.95808 -3.02327,-10.60094 z m -21.80572,14.53493 c -4.8389,0 -9.68111,-0.90906 -13.01957,-2.1192 -3.6329,-1.20847 -6.35509,-3.3285 -8.18067,-5.74795 -2.12002,-2.72467 -3.02576,-6.0623 -3.02576,-10.2982 0,-4.5486 1.21263,-9.99298 3.94477,-15.7542 2.72302,-6.65784 7.26166,-13.92613 13.32231,-21.18862 l 0.60631,0.30192 c 4.83973,5.44603 10.5968,11.20477 16.64916,16.65246 1.5162,13.02123 3.93233,25.13173 7.57684,35.73434 -6.35509,1.51039 -12.41906,2.41945 -17.87339,2.41945 z m 9.35348,-72.67799 c 0,3.63042 0,7.8771 0,12.113 0,3.93398 0,7.8771 0,11.81108 -4.14715,-3.93398 -7.84972,-8.17901 -11.79533,-12.11299 l 1.20433,-1.21097 c 3.33846,-3.63125 7.27328,-7.27245 10.591,-10.60012 z m -29.63471,-15.13876 c -2.43189,-6.06147 -3.64203,-11.20311 -3.64203,-15.75419 0,-4.23508 0.90989,-7.56358 3.03488,-10.5993 2.12003,-2.4211 4.84222,-4.23589 8.16824,-5.4452 3.64534,-1.51372 7.88124,-2.11836 13.03532,-2.11836 5.13915,0 11.20312,0.60464 17.85846,2.41944 -1.20931,3.32934 -2.41945,6.9697 -3.3285,10.90369 -1.82309,7.57353 -3.32684,16.34641 -4.54859,25.13422 -6.35178,5.45599 -12.113,11.20311 -17.25547,16.96268 -0.60299,-0.90739 -1.20932,-2.12915 -2.11588,-3.03655 -4.85466,-6.35426 -8.48341,-12.71847 -11.20643,-18.46643 z m 45.42541,-29.68282 c 3.32932,0.90823 6.95891,2.11919 10.89124,3.63125 3.64203,1.52366 7.2741,3.33763 11.20643,5.15657 -6.35426,3.32684 -12.70687,7.57186 -19.0744,11.80942 -3.33846,2.41862 -6.66448,4.83807 -9.99381,7.27079 1.81646,-10.29738 4.23922,-19.68735 6.97054,-27.86803 z m 3.32932,-8.48009 c 3.62959,-8.4718 7.87462,-14.83602 12.41409,-19.37466 2.11505,-2.12749 4.8505,-3.64203 6.96057,-4.85051 2.42857,-1.21096 4.84802,-1.51454 6.96805,-1.51454 2.42194,0 4.85051,0.30358 6.96804,1.51454 4.23756,1.8148 8.17984,5.45517 11.80943,10.59929 3.32933,4.54777 6.05235,9.69189 8.78366,15.75254 -3.63954,1.21179 -7.27078,2.1192 -10.9012,3.63125 -5.45433,2.11918 -10.89954,4.23673 -16.05362,7.26083 -6.05152,-3.0241 -11.51,-5.44521 -16.95521,-7.56275 -3.64203,-1.51288 -7.27079,-2.72302 -10.60012,-3.94394 0,-0.30108 0.30026,-0.9074 0.60631,-1.51205 z m 59.65594,19.08187 c 1.21014,5.45599 2.41945,11.20477 3.03488,17.26625 -3.03488,-2.43272 -5.75873,-4.85217 -9.09635,-6.96888 -6.3551,-4.53947 -12.70688,-8.48091 -19.07441,-12.11133 3.93564,-1.81894 7.57767,-3.33017 11.20726,-4.55026 3.62793,-1.51371 7.26166,-2.72301 10.59846,-3.93398 0.90822,3.32767 2.11754,6.6653 3.33016,10.2982 z m 5.14495,46.3328 c 0,6.36588 0,12.71931 -0.60714,19.08187 -4.8447,3.63042 -9.68442,7.56357 -15.13875,11.20477 -7.56441,5.14579 -15.4415,9.99464 -22.71229,13.93028 -7.57436,-3.93564 -15.44233,-8.78449 -22.71312,-13.93028 -5.44521,-3.94311 -10.29737,-7.57435 -14.83601,-11.80943 -0.60632,-5.7579 -0.90658,-12.11133 -0.90658,-18.47721 0,-6.65617 0.30026,-13.01957 0.90658,-18.7783 4.83889,-4.23673 9.69023,-7.86797 14.83601,-11.81274 7.8771,-5.14247 15.45145,-9.68111 23.01669,-13.62422 7.57436,3.94311 15.13544,8.78532 22.70897,14.23053 5.15408,3.33846 10.30069,7.27327 14.8385,11.20643 0.60714,6.06148 0.60714,12.42486 0.60714,18.7783 z m 6.96805,-12.113 c 4.23341,4.23507 8.48424,8.17984 11.8086,12.41657 l -1.20931,1.20931 c -3.3285,3.6412 -6.65452,6.9697 -10.59929,10.60012 0.29943,-3.93233 0.29943,-8.17902 0.29943,-12.113 0,-4.2359 0,-7.87793 -0.29943,-12.113 z m 9.38997,-48.45117 c 5.15491,0 9.69355,0.60549 13.32315,2.11837 3.6387,1.21014 6.06064,3.02577 7.87709,5.74878 2.11671,2.73132 3.02244,6.06148 3.02244,10.29821 0,4.54693 -0.90573,9.69189 -3.62958,15.44979 -2.72219,6.95975 -7.57684,14.2322 -13.62588,21.50132 l -0.603,-0.60299 c -4.85465,-5.45766 -10.29986,-10.90286 -16.66159,-16.35969 -1.21345,-13.32313 -3.93482,-25.4353 -7.56689,-36.03542 6.65784,-1.51288 12.7077,-2.11837 17.86426,-2.11837 z m 11.81026,60.86774 c 1.206,-1.2118 2.41862,-2.72468 3.33763,-4.23673 5.14164,-6.66695 9.07479,-13.32231 12.10056,-19.9901 2.73629,-6.66778 4.55191,-12.71681 4.55191,-18.47555 0,-5.44687 -1.81562,-10.29821 -4.84305,-14.53577 -2.73463,-3.93067 -6.66778,-6.66612 -11.20227,-8.48009 -4.55192,-1.51205 -9.99713,-2.41944 -15.75504,-2.41944 -6.36421,0 -13.32645,0.90739 -20.29283,2.72218 -0.3044,-1.21179 -0.90989,-2.4211 -1.21014,-3.32933 -4.2359,-9.08641 -8.78449,-16.34807 -14.53576,-21.50132 -2.41696,-2.72302 -5.7579,-4.53864 -8.7845,-6.05235 -3.32518,-1.52366 -6.36422,-2.43189 -9.99297,-2.43189 -3.32934,0 -6.65867,0.90823 -9.9963,2.43189 -5.44603,2.42111 -10.28493,6.95892 -14.83601,12.71848 -3.32602,5.14413 -6.65535,10.90203 -9.38749,17.55737 -7.26166,-1.81395 -14.22971,-2.72218 -20.28123,-2.72218 -5.76122,0 -10.9153,0.90823 -15.45478,2.4211 -4.53531,1.81646 -8.48008,4.5486 -11.20311,8.17902 -3.3285,3.93233 -4.53864,9.3908 -4.53864,14.83519 0,5.76039 1.21014,11.81025 4.2359,18.47721 3.32519,7.57519 8.48093,15.74341 14.83187,24.22683 -0.90656,1.21013 -2.11588,2.72219 -3.02244,3.93398 -5.44521,6.96804 -9.38998,13.93692 -12.41574,20.29036 -2.72302,6.36421 -4.23673,12.71848 -4.23673,18.47721 0,5.14329 1.21345,10.60012 4.23673,14.53411 3.02576,3.93481 6.97053,6.36504 11.8086,8.17983 4.55274,1.81562 9.6977,2.41945 15.44316,2.41945 6.3667,0 13.02205,-0.60383 20.29035,-2.41945 0.60631,0.9074 1.21262,2.11671 1.51537,3.32684 3.9456,8.78699 8.78449,16.05695 14.2297,21.50299 2.73214,2.42194 5.76123,4.53781 8.78449,6.06147 3.33763,1.51288 6.66696,2.42111 9.9963,2.42111 3.62875,0 6.66779,-0.90823 9.99297,-2.42111 5.76205,-2.43106 10.60095,-7.27078 14.83685,-13.03117 3.64119,-4.83973 6.66696,-10.59017 9.38915,-17.55904 7.27078,1.81562 14.23302,2.72302 20.59723,2.72302 5.75791,0 10.90038,-0.60466 15.43902,-2.11671 4.54777,-2.11837 8.17735,-4.53698 11.20643,-8.48258 3.03572,-3.9315 4.54859,-9.08724 4.54859,-14.83684 0,-5.75791 -1.51287,-11.8086 -4.23673,-18.4764 -3.34094,-7.5644 -8.47926,-15.74258 -15.14705,-23.92159"
         style="fill:#effffe;fill-opacity:1;fill-rule:nonzero;stroke:none"
         id="path24"
         inkscape:connector-curvature="0"
         inkscape:export-filename="logo-ccc-black-bg.png"
         inkscape:export-xdpi="90"
         inkscape:export-ydpi="90" />
      <path
         d="m 258.04434,819.92941 c -9.69107,0 -17.86509,7.86798 -17.86509,17.86178 0,9.69272 8.17402,18.17447 17.86509,18.17447 9.99297,0 17.8709,-8.48175 17.8709,-18.17447 0,-9.9938 -7.87793,-17.86178 -17.8709,-17.86178"
         style="fill:#ffe060;fill-opacity:1;fill-rule:nonzero;stroke:none"
         id="path26"
         inkscape:connector-curvature="0"
         inkscape:export-filename="logo-ccc-black-bg.png"
         inkscape:export-xdpi="90"
         inkscape:export-ydpi="90" />
      <circle
         style="font-style:normal;font-weight:normal;font-size:40px;line-height:125%;font-family:sans-serif;letter-spacing:41.13999939px;word-spacing:0px;opacity:1;fill:#93f2f0;fill-opacity:1;fill-rule:nonzero;stroke:none;stroke-width:1px;stroke-linecap:butt;stroke-linejoin:miter;stroke-opacity:1"
         id="path4273"
         cx="240.52051"
         cy="750.34924"
         r="9.8994942" />
      <circle
         style="font-style:normal;font-weight:normal;font-size:40px;line-height:125%;font-family:sans-serif;letter-spacing:41.13999939px;word-spacing:0px;opacity:1;fill:#93f2f0;fill-opacity:1;fill-rule:nonzero;stroke:none;stroke-width:1px;stroke-linecap:butt;stroke-linejoin:miter;stroke-opacity:1"
         id="path4273-3"
         cx="334.98853"
         cy="859.19495"
         r="9.8994942" />
      <circle
         style="font-style:normal;font-weight:normal;font-size:40px;line-height:125%;font-family:sans-serif;letter-spacing:41.13999939px;word-spacing:0px;opacity:1;fill:#93f2f0;fill-opacity:1;fill-rule:nonzero;stroke:none;stroke-width:1px;stroke-linecap:butt;stroke-linejoin:miter;stroke-opacity:1"
         id="path4273-6"
         cx="191.29718"
         cy="900.08942"
         r="9.8994942" />
    </g>
    <text
       xml:space="preserve"
       style="font-style:normal;font-weight:normal;font-size:40px;line-height:125%;font-family:sans-serif;letter-spacing:41.13999939px;word-spacing:0px;fill:#000000;fill-opacity:1;stroke:none;stroke-width:1px;stroke-linecap:butt;stroke-linejoin:miter;stroke-opacity:1"
       x="251.42857"
       y="475.21936"
       id="text4889"
       sodipodi:linespacing="125%"><tspan
         sodipodi:role="line"
         id="tspan4891"
         x="251.42857"
         y="475.21936" /></text>
  </g>
</svg>
